<?xml version="1.0" encoding="UTF-8"?>
<svg id="Layer_1" data-name="Layer 1" xmlns="http://www.w3.org/2000/svg" viewBox="0 0 145.08 146.82">
  <rect x="27.16" y="23.03" width="87.77" height="87.77" rx="43.88" ry="43.88" fill="#08263f"/>
  <path d="M77.05,93.88h-14.8v-19.56h-8.38v-14.8h8.38v-3.78c0-8.7,7.08-15.78,15.78-15.78h10.19v14.8h-10.19c-.54,0-.98,.44-.98,.98v3.78h11.69l-3.7,14.8h-7.99v19.56Zm-11.18-3.62h7.56v-19.56h8.78l1.89-7.56h-10.67v-7.4c0-2.54,2.07-4.6,4.61-4.6h6.57v-7.56h-6.57c-6.71,0-12.16,5.46-12.16,12.16v7.4h-8.38v7.56h8.38v19.56Z" fill="#fff"/>
</svg>