<?xml version="1.0" encoding="UTF-8"?>
<svg id="Layer_1" data-name="Layer 1" xmlns="http://www.w3.org/2000/svg" viewBox="0 0 145.08 146.82">
  <rect x="29.45" y="24.73" width="87.77" height="87.77" rx="43.88" ry="43.88" fill="#08263f"/>
  <path d="M80.44,91.89c-1,0-1.81-.81-1.81-1.81v-8.38c0-.33,0-.63,0-.91,.02-1.7,0-1.91-.68-2.59l-2.68-2.68,3.77-.4c6-.64,11.56-2.61,11.56-12.57,0-2.4-.93-4.68-2.6-6.4l-.8-.82,.4-1.08c.64-1.69,.7-3.51,.2-5.22-1.02,.17-3.03,.75-6.12,2.81l-.68,.45-.79-.21c-4.56-1.19-9.38-1.19-13.94,0l-.79,.21-.68-.45c-3.06-2.04-5.08-2.64-6.12-2.8-.5,1.7-.44,3.52,.2,5.21l.4,1.08-.8,.82c-1.68,1.72-2.6,4-2.6,6.4,0,9.96,5.55,11.93,11.56,12.57l3.77,.4-2.68,2.68c-.78,.78-.91,1.43-.68,3.28v3.78s.02,.06,.01,.08v4.75c0,1-.81,1.81-1.81,1.81s-1.81-.81-1.81-1.81v-2.46c-6.36,1.13-8.98-2.68-10.78-5.3-.79-1.16-1.54-2.25-2.3-2.47-.96-.28-1.51-1.29-1.23-2.25,.28-.96,1.3-1.5,2.25-1.23,1.99,.59,3.15,2.27,4.26,3.9,1.8,2.63,3.26,4.74,7.79,3.66v-2.11c-.14-1.14-.21-2.32,.11-3.49-4.72-.92-12.08-3.92-12.08-15.79,0-2.98,1.02-5.81,2.88-8.09-.72-2.65-.51-5.44,.63-7.98l.35-.78,.83-.23c.55-.15,3.5-.69,9.19,2.91,4.66-1.08,9.53-1.08,14.19,0,5.68-3.6,8.64-3.06,9.19-2.91l.83,.23,.35,.78c1.14,2.54,1.35,5.33,.63,7.98,1.87,2.28,2.88,5.11,2.88,8.09,0,11.9-7.4,14.88-12.12,15.79,.18,.79,.17,1.6,.15,2.5,0,.27,0,.55,0,.86v8.38c0,1-.81,1.81-1.81,1.81Z" fill="#fff"/>
</svg>