<?xml version="1.0" encoding="UTF-8"?>
<svg id="Layer_1" data-name="Layer 1" xmlns="http://www.w3.org/2000/svg" viewBox="0 0 145.08 146.82">
  <rect x="28.51" y="24.73" width="87.77" height="87.77" rx="43.88" ry="43.88" fill="#08263f"/>
  <path d="M55.06,47.29c-3.01,0-5.47,2.46-5.47,5.47s2.46,5.47,5.47,5.47,5.47-2.48,5.47-5.47-2.48-5.47-5.47-5.47Zm0,7.3c-1.02,0-1.82-.8-1.82-1.82s.8-1.82,1.82-1.82,1.82,.78,1.82,1.82-.8,1.82-1.82,1.82Z" fill="#fff" stroke="#07263f" stroke-miterlimit="10" stroke-width=".1"/>
  <path d="M58.71,60.07h-7.3c-1,0-1.82,.8-1.82,1.82v27.37c0,1,.82,1.82,1.82,1.82h7.3c1,0,1.82-.82,1.82-1.82v-27.37c0-1.02-.82-1.82-1.82-1.82Zm-1.82,27.37h-3.65v-23.72h3.65v23.72Z" fill="#fff" stroke="#07263f" stroke-miterlimit="10" stroke-width=".1"/>
  <path d="M81.52,60.07c-2.35,0-4.45,.75-6.39,1.81-.02-1-.82-1.81-1.82-1.81h-7.3c-1,0-1.82,.8-1.82,1.82v27.37c0,1,.82,1.82,1.82,1.82h7.3c1,0,1.82-.82,1.82-1.82v-13.69c0-2.52,2.04-4.56,4.56-4.56s4.56,2.04,4.56,4.56v13.69c0,1,.82,1.82,1.82,1.82h7.3c1,0,1.82-.82,1.82-1.82v-15.51c0-7.54-6.15-13.69-13.69-13.69Zm10.04,27.37h-3.65v-11.86c0-4.51-3.7-8.21-8.21-8.21s-8.21,3.7-8.21,8.21v11.86h-3.65v-23.72h3.65v1.48c0,1.02,.82,1.82,1.82,1.82,.47,0,.93-.18,1.26-.51,1.81-1.73,4.25-2.79,6.95-2.79,5.57,0,10.04,4.47,10.04,10.04v13.69Z" fill="#fff" stroke="#07263f" stroke-miterlimit="10" stroke-width=".1"/>
</svg>