<?xml version="1.0" encoding="UTF-8"?>
<svg id="svg2" xmlns="http://www.w3.org/2000/svg" viewBox="0 0 219.76 57.69">
  <path d="M45.12,38.07v-12.69c0-.33-.13-.55-.43-.71-2.52-1.38-5.03-2.77-7.55-4.16l-6.48-3.57,14.69-8.26-.5-.31c-.08-.05-.15-.1-.23-.14l-2.78-1.59c-3.8-2.18-7.61-4.36-11.41-6.55-.28-.16-.5-.08-.67,.01-4.13,2.33-8.26,4.65-12.39,6.97l-2.52,1.41,14.74,8.46-1.4,.75c-4.21,2.26-8.43,4.53-12.64,6.79-.31,.17-.44,.39-.44,.74v15.3L.02,32.77l-.02,.48v16.07c0,.35,.19,.49,.36,.57,.75,.38,1.5,.77,2.25,1.16,.62,.32,1.23,.64,1.85,.96,2.73,1.4,5.47,2.8,8.2,4.2l2.28,1.17c.06,.03,.13,.06,.21,.1l.48,.21v-16.33c4.28,2.48,8.89,5.02,14.11,7.76,.27,.14,.5,.14,.77,0,4-2.21,8.01-4.41,12.01-6.61l2.11-1.16v16.32l.44-.18c.07-.03,.12-.05,.17-.07l3.5-1.8c3.71-1.9,7.42-3.81,11.13-5.7,.26-.13,.37-.33,.37-.63v-16.51h0l-15.12,7.73v-2.44Zm-31.12,14.54h0v2.7l-2.99-1.55c-3.08-1.6-6.16-3.2-9.24-4.79-.13-.07-.15-.11-.15-.27v-13.53l2.77,1.48c3.16,1.69,6.32,3.37,9.48,5.05,.12,.06,.13,.09,.13,.23v10.68ZM30.92,20.28v-1.51l2.13,1.18c3.46,1.91,6.91,3.83,10.37,5.73,.06,.03,.06,.04,.06,.16v13.58l-1.32-.72c-1.72-.94-3.44-1.88-5.17-2.82-.08-.04-.09-.05-.09-.17v-5.96c0-.31-.12-.51-.41-.66-1.12-.59-2.24-1.18-3.36-1.78l-2.11-1.12c-.1-.05-.1-.06-.1-.13v-5.78Zm-10.66-10.44h-.01l-2.31-1.35,1.12-.63c1.11-.62,2.21-1.23,3.31-1.84L30.01,1.78c.12-.07,.12-.06,.18-.03,3.48,1.96,6.96,3.91,10.44,5.86l1.87,1.05-3.15,1.77c-3.02,1.7-6.05,3.4-9.07,5.1-.12,.07-.16,.07-.28,0-3.25-1.9-6.5-3.79-9.74-5.69Zm9.79,17.5s.1-.03,.11-.03c1.3,.74,2.59,1.49,3.88,2.24l.44,.26-3.27,1.79c-.34,.18-.68,.37-1.02,.53-.02,0-.08,.02-.09,.02-1.38-.74-2.76-1.49-4.13-2.24l-.18-.1,.42-.24,1.11-.65c.91-.53,1.82-1.06,2.73-1.58Zm5.24,3.59h0v5.08c-1.45,.74-2.9,1.48-4.35,2.21v-4.8q0-.11,.04-.14c1.12-.6,2.23-1.21,3.34-1.82l.97-.53Zm-5.95,2.49v4.77l-.02,.02-.59-.29c-.82-.4-1.62-.79-2.41-1.18-.4-.2-.82-.42-1.3-.7-.02-.01-.04-.05-.04-.05v-4.89l.95,.48c1.1,.56,2.2,1.12,3.3,1.67,.11,.05,.11,.07,.11,.17Zm-12.59-7.65c0-.18,.03-.23,.19-.32,3.33-1.79,6.66-3.58,9.99-5.38l2.4-1.29v7.19c0,.16-.03,.19-.14,.25-.91,.48-1.82,.96-2.72,1.44-.91,.48-1.81,.96-2.72,1.44-.28,.15-.39,.34-.39,.64v5.94c0,.14-.02,.17-.13,.23-1.69,.91-3.37,1.83-5.05,2.76l-1.42,.78v-13.67h-.01Zm25.08,15.46l-11.59,6.39c-.11,.06-.12,.05-.18,.02-3.3-1.8-6.6-3.6-9.9-5.4l-2.74-1.49,.48-.25c.7-.37,1.39-.73,2.08-1.1,1.35-.72,2.69-1.45,4.03-2.19,.11-.06,.16-.06,.27,0,.82,.44,1.64,.88,2.47,1.32,.98,.52,1.96,1.04,2.94,1.57,.3,.16,.57,.16,.88,0,1.08-.58,2.16-1.15,3.23-1.73l2.18-1.16c.12-.06,.13-.06,.19-.03,1.74,.96,3.49,1.91,5.23,2.87l1.27,.7c-.29,.17-.56,.33-.84,.48Zm4.42,11.77v-11.03c0-.18,.03-.23,.18-.31,3.3-1.75,6.6-3.51,9.89-5.26l2.31-1.23c0,4.54,0,9.08-.01,13.62h.01s-.03,.07-.04,.08c-3.82,1.99-7.64,3.98-11.46,5.97l-.88,.45v-2.29Z"/>
  <path d="M96.94,20.98h-.01c-.92,.01-1.73,.21-2.45,.78-.59,.46-1.07,1.04-1.07,1.8-.03,3.49-.02,6.98,0,10.46,0,.31,.09,.66,.26,.91,.52,.77,1.28,1.22,2.21,1.22,6.59,.02,13.18,0,19.77,0h.32v-3h-19v-2.99h19v-3.19h-19v-2.82h19.01v-3.16h-.41c-6.21,0-12.42,.01-18.63-.01Z"/>
  <path d="M174.8,21.01c-.93,0-1.74,.24-2.45,.85-.59,.51-.94,1.08-.93,1.91,.03,3.48,.02,6.96,.02,10.43,0,.14,.02,.3,.06,.43,.3,.82,1.34,1.54,2.21,1.54h20.11v-3h-18.82v-3h18.81v-3.19h-18.82v-2.81h18.83v-3.16h-.39c-6.21,0-12.42,.01-18.63,0Z"/>
  <path d="M89.92,28.53c-.26-.35-.5-.74-.83-1.01-.47-.38-1.01-.71-1.66-.71h-3.72c1.19-1.95,2.34-3.85,3.54-5.81h-3.99c-.07,0-.17,.08-.21,.15-1.1,1.74-2.2,3.47-3.28,5.22-.12,.19-.24,.26-.46,.26h-9.23v-5.62h-3.15v15.12h3.16v-6.13h16.43v9.3h3.54c0-.08,.01-.14,.01-.19v-10.17c0-.14-.04-.3-.12-.41h-.03Z"/>
  <path d="M165.3,20.98h.01c-6.48,.04-12.97,.02-19.45,.02h-.35v15.14h3.35v-11.95h15.68v11.96h3.52c0-.1,.01-.17,.01-.25v-12.22c0-.48-.12-.91-.38-1.3-.56-.85-1.27-1.4-2.39-1.4Z"/>
  <path d="M200.73,33.15v-12.14h-3.54v12.9c0,.38,.13,.71,.37,.99,.75,.92,1.72,1.42,2.92,1.43h19.28v-3.18h-19.03Z"/>
  <path d="M122.3,21c-.16,0-.34,0-.49,.07-.66,.25-1.25,.63-1.73,1.16-.25,.28-.37,.58-.37,.95v12.96h3.55v-11.98h18.84v-3.14c-.1,0-.19-.02-.27-.02h-19.53Z"/>
</svg>