<?xml version="1.0" encoding="UTF-8"?>
<svg id="Layer_1" data-name="Layer 1" xmlns="http://www.w3.org/2000/svg" viewBox="0 0 257.56 56.06">
  <g>
    <path d="M68.56,36.21c0,1.35-.45,2.46-1.34,3.33-.9,.87-2.14,1.32-3.73,1.36-.4,0-.83-.06-1.29-.19-.84-.24-1.28-.36-1.32-.36-.44-.09-.88-.19-1.33-.29-.45-.1-.84-.31-1.16-.62-.49-.44-.9-1.15-1.21-2.14-.38-1.15-.68-1.87-.88-2.16-.15-.15-.32-.4-.52-.77-.05-.27,0-.54,.15-.81,.15-.26,.34-.43,.56-.51,.11-.04,.31-.06,.6-.06,.64,0,1.42,.08,2.34,.23,.92,.16,1.44,.3,1.55,.42,.11,.13,.26,.79,.44,1.97,.16,1.1,.41,1.71,.74,1.84,.07,.04,.16,.05,.25,.05,.35,0,.64-.29,.89-.86,.25-.58,.37-1.23,.37-1.96,0-1.59-.49-2.65-1.48-3.18-2.27-1.22-3.85-2.36-4.77-3.4-1.06-1.21-1.53-2.63-1.43-4.27,.09-1.37,.59-2.75,1.49-4.15s1.86-2.21,2.86-2.45c.42-.09,1.7,.31,3.84,1.21,.53,.2,1.06,.41,1.6,.63s.97,.54,1.3,.96c.51,.64,.77,1.75,.77,3.32,0,.29,0,.72-.03,1.29-.02,.49-.03,.84-.03,1.04,.02,.13,.08,.34,.19,.63,.09,.2,.13,.4,.11,.6-.04,.8-.38,1.25-1.01,1.34-.37,.06-1.04-.08-2.03-.41-1.1-.35-1.79-.72-2.08-1.12-.04-.06-.05-.24-.05-.55,0-.27,.03-.89,.1-1.86,.06-.97,.1-1.67,.1-2.11,0-.79-.09-1.17-.27-1.15-.57,.04-1.04,.44-1.41,1.22-.37,.78-.56,1.66-.56,2.64,0,1.64,.48,2.81,1.45,3.51,1.1,.69,2.19,1.39,3.29,2.08,1.04,.68,1.76,1.35,2.16,2.03,.51,.88,.77,2.1,.77,3.67Z" fill="#fff"/>
    <path d="M83.68,39.52c-.02,.26-.13,.48-.33,.66s-.43,.26-.69,.22c-2.27-.31-3.53-.74-3.78-1.29-.04-.07-.06-.15-.06-.22,0-.09,.04-.19,.12-.3,.08-.11,.13-.21,.15-.29,.02-.08,.05-.16,.11-.23,.04-.15,.05-.47,.03-.96-.22,.16-.55,.6-.99,1.31-.46,.79-.86,1.33-1.21,1.64-.58,.55-1.25,.82-2,.82-.44,0-.87-.17-1.29-.52-.2-.16-.56-.52-1.07-1.07-.88-.99-1.35-1.52-1.42-1.62-.38-.51-.58-1-.58-1.45,0-.15,.02-.29,.06-.44,.35-1.61,1.42-3.13,3.23-4.58,1.32-1.04,3.18-2.15,5.59-3.32,0-.58-.15-.96-.44-1.12-.18-.11-.82,.1-1.92,.62-1.1,.52-1.86,.96-2.3,1.33-.15,.15-.38,.35-.71,.6-.31,.18-.59,.24-.85,.16-.2-.05-.63-.38-1.29-.99-.66-.6-1.01-1-1.07-1.21-.15-.49,0-.88,.47-1.15,.02-.02,.38-.13,1.1-.33,.68-.37,1.35-.73,2.03-1.1,1.42-.68,2.63-1.04,3.62-1.1,.42-.02,.89,.2,1.42,.66,.47,.42,.95,.84,1.44,1.25,.48,.41,.98,.81,1.49,1.19,.58,.51,.88,1,.88,1.48v10.36c.18,.48,.26,.79,.25,.96Zm-4.38-8c-.9,.35-1.66,.88-2.3,1.59-.48,.58-.95,1.16-1.42,1.73-.38,.38-.74,.88-1.08,1.49-.34,.61-.51,1.06-.51,1.36,0,.15,.05,.22,.16,.22,.38,0,1.24-.83,2.58-2.48,1.33-1.65,2.19-2.95,2.58-3.9Z" fill="#fff"/>
    <path d="M98.81,38.37c.15,.35,.22,.69,.22,1.04,0,.55-.21,.92-.63,1.12-.13,.05-.36,.08-.69,.08-.62,0-1.36-.1-2.22-.29s-1.38-.38-1.56-.56c-.09-.11-.14-.23-.14-.36,0-.2,.14-.52,.41-.97,.27-.45,.41-.77,.41-.97,.04-7.2-.02-10.82-.16-10.88-.26-.09-.89,.73-1.89,2.47-1.06,1.83-1.59,3.21-1.59,4.14v5.12c.24,.24,.36,.53,.36,.88,0,.69-.31,1.17-.93,1.42-.07,.04-.18,.05-.33,.05-.49,0-1.22-.11-2.17-.34-.95-.23-1.48-.42-1.59-.56-.11-.15-.16-.31-.16-.49s.1-.4,.32-.66c.21-.26,.31-.42,.31-.49v-12.74c0-.15-.07-.34-.22-.58-.15-.24-.19-.44-.14-.6,.11-.38,.39-.63,.85-.74,.29-.07,.98,.03,2.06,.3,1.17,.29,1.81,.59,1.92,.9,.07,.2,.05,.5-.08,.9-.2,.64-.3,1-.3,1.1,0,.2,.04,.42,.11,.66,.27-.91,.66-1.73,1.15-2.44,.6-.86,1.21-1.29,1.81-1.29s1.42,.21,2.41,.64c.99,.43,1.55,.82,1.7,1.16,.51,1.17,.77,5.49,.77,12.96Z" fill="#fff"/>
    <path d="M110.1,26.7c-.02,.33-.13,.62-.33,.88-.2,.26-.42,.38-.66,.38-.07,0-.14,0-.19-.03-.26-.09-.83-.14-1.73-.14v10.82s.06,.13,.18,.44c.12,.31,.18,.58,.18,.82,0,.53-.37,.81-1.1,.85-.38,.02-1.09-.15-2.11-.49-1.11-.37-1.71-.7-1.78-1.01-.04-.13,.03-.4,.19-.81s.25-.73,.25-.95v-9.7h-.93c-.35,0-.78-.31-1.29-.92-.51-.61-.77-1.1-.77-1.47,0-.27,.1-.52,.31-.74,.21-.22,.44-.33,.7-.33h1.97v-2.47c-.27-.37-.41-.76-.41-1.18,0-.38,.16-.62,.49-.71,.16-.04,.39-.05,.69-.05,.68,0,1.47,.1,2.37,.31,.9,.21,1.49,.42,1.77,.64,.13,.11,.19,.24,.19,.38,0,.18-.15,.46-.44,.82-.29,.37-.45,.62-.47,.77v1.48h.88c.18,0,.57,.33,1.15,.99,.58,.66,.88,1.12,.88,1.4Z" fill="#fff"/>
    <path d="M124.79,39.52c-.02,.26-.13,.48-.33,.66s-.43,.26-.69,.22c-2.27-.31-3.53-.74-3.78-1.29-.04-.07-.06-.15-.06-.22,0-.09,.04-.19,.12-.3,.08-.11,.13-.21,.15-.29,.02-.08,.05-.16,.11-.23,.04-.15,.05-.47,.03-.96-.22,.16-.55,.6-.99,1.31-.46,.79-.86,1.33-1.21,1.64-.58,.55-1.25,.82-2,.82-.44,0-.87-.17-1.29-.52-.2-.16-.56-.52-1.07-1.07-.88-.99-1.35-1.52-1.42-1.62-.38-.51-.58-1-.58-1.45,0-.15,.02-.29,.06-.44,.35-1.61,1.42-3.13,3.23-4.58,1.32-1.04,3.18-2.15,5.59-3.32,0-.58-.15-.96-.44-1.12-.18-.11-.82,.1-1.92,.62-1.1,.52-1.86,.96-2.3,1.33-.15,.15-.38,.35-.71,.6-.31,.18-.59,.24-.85,.16-.2-.05-.63-.38-1.29-.99-.66-.6-1.01-1-1.07-1.21-.15-.49,0-.88,.47-1.15,.02-.02,.38-.13,1.1-.33,.68-.37,1.35-.73,2.03-1.1,1.42-.68,2.63-1.04,3.62-1.1,.42-.02,.89,.2,1.42,.66,.47,.42,.95,.84,1.44,1.25,.48,.41,.98,.81,1.49,1.19,.58,.51,.88,1,.88,1.48v10.36c.18,.48,.26,.79,.25,.96Zm-4.38-8c-.9,.35-1.66,.88-2.3,1.59-.48,.58-.95,1.16-1.42,1.73-.38,.38-.74,.88-1.08,1.49-.34,.61-.51,1.06-.51,1.36,0,.15,.05,.22,.16,.22,.38,0,1.24-.83,2.58-2.48,1.33-1.65,2.19-2.95,2.58-3.9Z" fill="#fff"/>
    <path d="M147.15,19.63c.02-.2,.03,1.54,.03,5.23,0,10.41-1.45,15.78-4.36,16.11-.51,.05-1.13-.04-1.85-.27s-1.43-.48-2.12-.71c-.6-.15-1.21-.31-1.82-.48-.61-.17-1.09-.45-1.44-.84-.75-.82-1.35-2.61-1.81-5.37-.4-2.54-.6-5.35-.6-8.44,0-2.37,.13-4.47,.38-6.27,.07-.57,.34-.93,.79-1.1,.2-.07,.9,.05,2.1,.38,1.2,.33,1.9,.61,2.1,.85,.09,.11,.14,.26,.14,.44,0,.24-.09,.56-.27,.97-.18,.41-.27,.74-.25,.97-.09,.35-.14,1.35-.14,3.01,0,3.22,.15,6.13,.44,8.74,.37,3.36,.9,5.01,1.59,4.93,.88-.09,1.53-1.69,1.97-4.8,.35-2.39,.52-5.22,.52-8.47,0-2.14-.06-3.48-.19-4.03,.04-.31,0-.61-.11-.9-.16-.4-.25-.62-.25-.66-.11-.62,.09-1.09,.6-1.4,.09-.05,.25-.08,.47-.08,.55,0,1.31,.14,2.3,.41,.99,.27,1.56,.5,1.73,.69,.11,.13,.13,.48,.06,1.07Z" fill="#fff"/>
    <path d="M162.11,38.37c.15,.35,.22,.69,.22,1.04,0,.55-.21,.92-.63,1.12-.13,.05-.36,.08-.69,.08-.62,0-1.36-.1-2.22-.29s-1.38-.38-1.56-.56c-.09-.11-.14-.23-.14-.36,0-.2,.14-.52,.41-.97,.27-.45,.41-.77,.41-.97,.04-7.2-.02-10.82-.16-10.88-.26-.09-.89,.73-1.89,2.47-1.06,1.83-1.59,3.21-1.59,4.14v5.12c.24,.24,.36,.53,.36,.88,0,.69-.31,1.17-.93,1.42-.07,.04-.18,.05-.33,.05-.49,0-1.22-.11-2.17-.34-.95-.23-1.48-.42-1.59-.56-.11-.15-.16-.31-.16-.49s.1-.4,.32-.66c.21-.26,.31-.42,.31-.49v-12.74c0-.15-.07-.34-.22-.58-.15-.24-.19-.44-.14-.6,.11-.38,.39-.63,.85-.74,.29-.07,.98,.03,2.06,.3,1.17,.29,1.81,.59,1.92,.9,.07,.2,.05,.5-.08,.9-.2,.64-.3,1-.3,1.1,0,.2,.04,.42,.11,.66,.27-.91,.66-1.73,1.15-2.44,.6-.86,1.21-1.29,1.81-1.29s1.42,.21,2.41,.64c.99,.43,1.55,.82,1.7,1.16,.51,1.17,.77,5.49,.77,12.96Z" fill="#fff"/>
    <path d="M176.36,34.78c0,.35-.3,.81-.9,1.4-.49,1.08-.93,1.85-1.31,2.33-.84,1.1-1.87,1.74-3.1,1.95-.26,.04-.5,.06-.74,.06-1.02,0-2.28-.49-3.78-1.48-1.3-.88-1.95-2.9-1.95-6.06,0-2.34,.36-4.46,1.07-6.36,.79-2.06,1.74-3.13,2.88-3.21,.9-.05,1.99,.18,3.29,.71,1.3,.53,2.17,1.11,2.63,1.75,.38,.53,.58,1.23,.58,2.11,0,.24-.02,.58-.06,1.03s-.05,.76-.03,.95c.04,.49,.05,.72,.05,.69,0,.58-.28,.87-.85,.85-.66-.02-1.28-.12-1.86-.3-.79-.27-1.26-.65-1.42-1.12-.05-.16,.02-.38,.23-.66,.21-.27,.3-.5,.26-.69,.04-.13,.06-.45,.06-.96,0-1.1-.19-1.66-.58-1.7-.58-.04-1.08,.85-1.48,2.66-.37,1.61-.55,3.36-.55,5.26,0,2.25,.26,3.43,.79,3.56,.42,.09,.97-.37,1.64-1.37,.57-.86,.87-1.44,.92-1.74,.05-.3,.09-.61,.12-.92,.13-.51,.46-.75,.99-.71,.33,.04,.9,.25,1.73,.63,.82,.38,1.26,.67,1.3,.86,.05,.19,.07,.35,.07,.48Z" fill="#fff"/>
    <path d="M190.91,39.52c-.09,.53-.29,.87-.6,1.01-.13,.05-.36,.08-.69,.08-.62,0-1.36-.1-2.22-.29s-1.38-.38-1.56-.56c-.07-.09-.11-.2-.11-.33,0-.15,.08-.42,.25-.82,.11-.15,.23-.31,.36-.48,.13-.17,.19-.4,.19-.67,.04-7.2-.02-10.82-.16-10.88-.27-.09-.9,.58-1.89,2-1.06,1.52-1.59,2.73-1.59,3.64v6.08c.29,.29,.39,.68,.3,1.15-.11,.57-.4,.95-.88,1.15-.07,.04-.18,.05-.33,.05-.49,0-1.22-.11-2.17-.34-.95-.23-1.47-.4-1.56-.51-.2-.29-.22-.63-.05-1.01,.02-.05,.1-.15,.26-.29,.15-.14,.23-.27,.23-.4V18.75c0-.15-.07-.34-.22-.58-.15-.24-.19-.44-.14-.6,.11-.38,.39-.63,.85-.74,.29-.07,.98,.03,2.06,.3,1.17,.29,1.81,.59,1.92,.9,.07,.2,.05,.5-.08,.9-.13,.4-.19,.9-.19,1.48v5.12c1.02-1.3,2.01-1.95,2.96-1.95,.62,0,1.42,.21,2.41,.64,.99,.43,1.55,.82,1.7,1.16,.51,1.17,.77,5.49,.77,12.96,.18,.44,.25,.82,.19,1.15Z" fill="#fff"/>
    <path d="M206.01,39.52c-.02,.26-.13,.48-.33,.66s-.43,.26-.69,.22c-2.27-.31-3.53-.74-3.78-1.29-.04-.07-.06-.15-.06-.22,0-.09,.04-.19,.12-.3,.08-.11,.13-.21,.15-.29,.02-.08,.05-.16,.11-.23,.04-.15,.05-.47,.03-.96-.22,.16-.55,.6-.99,1.31-.46,.79-.86,1.33-1.21,1.64-.58,.55-1.25,.82-2,.82-.44,0-.87-.17-1.29-.52-.2-.16-.56-.52-1.07-1.07-.88-.99-1.35-1.52-1.42-1.62-.38-.51-.58-1-.58-1.45,0-.15,.02-.29,.06-.44,.35-1.61,1.42-3.13,3.23-4.58,1.32-1.04,3.18-2.15,5.59-3.32,0-.58-.15-.96-.44-1.12-.18-.11-.82,.1-1.92,.62-1.1,.52-1.86,.96-2.3,1.33-.15,.15-.38,.35-.71,.6-.31,.18-.59,.24-.85,.16-.2-.05-.63-.38-1.29-.99-.66-.6-1.01-1-1.07-1.21-.15-.49,0-.88,.47-1.15,.02-.02,.38-.13,1.1-.33,.68-.37,1.35-.73,2.03-1.1,1.42-.68,2.63-1.04,3.62-1.1,.42-.02,.89,.2,1.42,.66,.47,.42,.95,.84,1.44,1.25,.48,.41,.98,.81,1.49,1.19,.58,.51,.88,1,.88,1.48v10.36c.18,.48,.26,.79,.25,.96Zm-4.38-8c-.9,.35-1.66,.88-2.3,1.59-.48,.58-.95,1.16-1.42,1.73-.38,.38-.74,.88-1.08,1.49-.34,.61-.51,1.06-.51,1.36,0,.15,.05,.22,.16,.22,.38,0,1.24-.83,2.58-2.48,1.33-1.65,2.19-2.95,2.58-3.9Z" fill="#fff"/>
    <path d="M213.82,39.58c.07,.66-.16,1.07-.69,1.23-.09,.02-.22,.03-.38,.03-.66,0-1.47-.14-2.44-.41-1.04-.29-1.65-.6-1.84-.93-.09-.15,0-.43,.25-.85,.16-.27,.25-.78,.25-1.51v-11.51c-.22-.69-.33-1.16-.33-1.4s.34-.36,1.01-.36c.55,0,1.31,.17,2.29,.51,.98,.34,1.57,.64,1.77,.89,.05,.07,.08,.16,.08,.27,0,.15-.11,.42-.32,.82-.21,.4-.31,.7-.31,.9v11.02c0,.18,.1,.41,.31,.69s.32,.48,.34,.6Zm.08-18.94s.03,.11,.03,.22c0,.4-.08,.92-.25,1.56-.18,.69-.36,1.08-.52,1.15-.18,.07-.97-.12-2.36-.59-1.39-.47-2.13-.8-2.22-1-.05-.09-.08-.23-.08-.41,0-.49,.13-1.01,.38-1.56,.29-.62,.62-.97,.99-1.04,.42-.07,1.15,.09,2.19,.48,1.04,.39,1.65,.79,1.84,1.19Z" fill="#fff"/>
    <path d="M228.94,38.37c.15,.35,.22,.69,.22,1.04,0,.55-.21,.92-.63,1.12-.13,.05-.36,.08-.69,.08-.62,0-1.36-.1-2.22-.29s-1.38-.38-1.56-.56c-.09-.11-.14-.23-.14-.36,0-.2,.14-.52,.41-.97,.27-.45,.41-.77,.41-.97,.04-7.2-.02-10.82-.16-10.88-.26-.09-.89,.73-1.89,2.47-1.06,1.83-1.59,3.21-1.59,4.14v5.12c.24,.24,.36,.53,.36,.88,0,.69-.31,1.17-.93,1.42-.07,.04-.18,.05-.33,.05-.49,0-1.22-.11-2.17-.34-.95-.23-1.48-.42-1.59-.56-.11-.15-.16-.31-.16-.49s.1-.4,.32-.66c.21-.26,.31-.42,.31-.49v-12.74c0-.15-.07-.34-.22-.58-.15-.24-.19-.44-.14-.6,.11-.38,.39-.63,.85-.74,.29-.07,.98,.03,2.06,.3,1.17,.29,1.81,.59,1.92,.9,.07,.2,.05,.5-.08,.9-.2,.64-.3,1-.3,1.1,0,.2,.04,.42,.11,.66,.27-.91,.66-1.73,1.15-2.44,.6-.86,1.21-1.29,1.81-1.29s1.42,.21,2.41,.64c.99,.43,1.55,.82,1.7,1.16,.51,1.17,.77,5.49,.77,12.96Z" fill="#fff"/>
    <path d="M242.53,35.33c.16,.27-.19,1.09-1.07,2.44-.95,1.44-1.88,2.42-2.79,2.93-.11,.06-.27,.08-.49,.08-.71,0-1.64-.22-2.8-.66-1.22-.44-2.03-.91-2.41-1.42-1.06-1.37-1.59-3.27-1.59-5.7,0-2.3,.47-4.33,1.4-6.08,1-1.92,2.28-2.9,3.84-2.93,.57-.02,1.25,.13,2.06,.44,.99,.38,1.8,.9,2.44,1.56,.16,.16,.32,.66,.47,1.48,.18,.88,.27,1.74,.27,2.58,0,1.24-.2,2.1-.6,2.58-1.88,.6-3.8,.94-5.75,1.01-.04,.9,.07,1.84,.33,2.82,.26,.99,.52,1.49,.79,1.51,.37,.02,.8-.28,1.32-.9,.46-.53,.74-.98,.85-1.34,.13-.55,.3-1.11,.52-1.7,.29-.04,.87,.11,1.73,.44,.86,.33,1.36,.62,1.51,.88Zm-4.88-8.39c-.31-.04-.74,.46-1.3,1.48-.56,1.02-.88,2-.97,2.93,.82-.04,1.48-.24,1.97-.6,.29-.22,.44-1.13,.44-2.74,0-.68-.05-1.03-.14-1.07Z" fill="#fff"/>
    <path d="M257.55,19.05c.04,.18-.03,.54-.21,1.07-.17,.53-.26,.83-.26,.9v17.87c0,.6,.05,.98,.14,1.12,.27,.48,.36,.79,.25,.96-.09,.15-.33,.22-.71,.22-.42,0-1.06-.08-1.92-.25-.97-.2-1.48-.3-1.53-.3-.33-.04-.57-.26-.71-.66-.02-.04-.03-.15-.03-.36,0-.75,.1-1.86,.3-3.34-.44,.88-.87,1.75-1.29,2.63-.6,1.08-1.14,1.57-1.62,1.48-3.6-.73-5.4-2.94-5.4-6.63,0-2.1,.58-4.24,1.73-6.41,1.11-2.1,2.34-3.47,3.67-4.11,.18-.09,.36-.14,.52-.14,.46,0,1.25,.57,2.38,1.7v-5.32c-.02-.15-.1-.41-.25-.78-.15-.37-.22-.65-.22-.84,0-.38,.26-.58,.77-.58,.46,0,1.11,.13,1.97,.38,.55,.18,1.09,.36,1.62,.52,.46,.13,.72,.41,.79,.85Zm-4.77,7.07c-1.02,.46-1.95,1.46-2.78,3.01-.83,1.55-1.25,3-1.25,4.33,0,1.55,.6,2.4,1.81,2.55,.64,.07,1.38-3.22,2.22-9.89Z" fill="#fff"/>
  </g>
  <path d="M42.45,31.74c-.29-2.04-1.04-4.22-2.24-5.86-1.08-1.46-1.56-2.63-1.04-4.32,.18-.62-.02-1.34,.05-2,.27-2.6-1.73-4.09-2.88-6-2.72-4.54-6.12-8.47-10.46-11.53-3.83-2.71-5.87-2.77-9.49,.17-3.06,2.48-5.87,5.3-8.69,8.07-1,.97-1.75,1.7-3.4,1.4-1.98-.36-3.8,1.3-4.21,3.25-.41,1.99,.65,3.95,2.54,4.73,1.86,.77,3.99,.1,5.1-1.63,.34-.53,.59-1.12,.85-1.61,.13,2.41,.27,4.79,.39,7.17,.01,.15,.03,.32-.03,.44-.95,1.85-1.82,3.75-2.88,5.53-1.16,1.94-1.18,3.75,.03,5.67,.32,.51,.51,1.35,.33,1.9-.95,3.02-.41,4.63,2.29,6.48,.36,.25,.78,.68,.84,1.08,.8,5.08,2.09,6.21,7.31,6.33,3.55,6.46,9.54,6.75,13.67,.69,.25-.38,.89-.67,1.38-.7,4.22-.29,5.89-1.87,6.28-6,.04-.44,.25-1.01,.57-1.27,3.39-2.69,3.72-3.76,2.45-6.86,.55-2.09,1.44-3.69,1.24-5.13Zm-4.38-10.46c-.07,.71-.33,1.41-.55,2.35-9.15-2.03-18.17-2-27.81,.12,.17-2.45,.18-4.49,.52-6.46,.1-.56,1.1-1.12,1.79-1.39,7.28-2.82,14.63-3.13,22.07-.6,3.57,1.22,4.36,2.29,3.98,5.98Zm-14.28,9.82c3.59-2.56,6.58,.82,10.58,1.08-.87,1.11-1.35,2.36-2.21,2.71-2.92,1.22-5.68,.47-8.27-1.44-4.64,3.16-9.32,2.55-9.94-1.26,3.31-.09,6.2-3.81,9.84-1.09Zm-9.96-3.05c-.02-.75,.08-1.49,.11-2.23,.05-1.23,.57-1.83,1.9-1.93,2.67-.19,5.33-.56,8-.86,2.82,.31,5.64,.56,8.44,.97,.53,.08,1.13,.76,1.38,1.31,.3,.65,.31,1.45,.34,2.19,.1,3.16-.84,3.8-3.6,2.36-1.89-1-3.74-1.35-5.76-.43-.41,.18-1.04,.24-1.43,.05-2.19-1.06-4.14-.54-6.16,.55-2.36,1.28-3.14,.75-3.22-1.98ZM4.2,18.77c-1.66,0-2.99-1.33-2.97-3,.01-1.66,1.34-3.01,2.98-3,1.61,0,2.99,1.39,2.99,3.01s-1.35,2.99-3,2.99Zm4.26-3.95c-.39-.67-.8-1.36-1.53-2.63,3.9-3.36,7.78-6.9,11.9-10.14,.89-.7,2.86-.84,3.92-.35,5.51,2.58,9.16,7.13,12.27,12.35-6.85-2.02-13.65-2.36-20.79-.17,.65-1.55,1.08-2.55,1.5-3.55-.21-.19-.43-.39-.65-.58-1.52,2.68-3.38,4.85-6.62,5.07Zm28.46,28.35c.57,5.28-1.9,7.28-6.88,6.41-.94,3.22-2.95,5.36-6.52,5.17-3.13-.16-4.99-2.09-5.68-5.06-5.93,.16-7.52-1.34-6.86-6.35-4.38-2.3-4.81-3.56-2.47-7.25q-2.62-3-.6-6.78c.13-.24,.16-.55,.19-.84,.29-2.99,1.43-3.96,4.54-3.91,0,2.68-.06,5.2,.02,7.72,.07,2.37,1.62,4.2,4.12,4.14,2.38-.05,4.75-1.2,7.13-1.21,2.37,0,4.75,1.18,7.13,1.2,2.66,.03,4.06-1.94,4.03-4.64,0-1.19,.03-2.38,.04-3.57s0-2.37,0-3.56c2.88-.19,4.31,1.03,4.52,3.86,.03,.33,.16,.7,.35,.98,2.06,3.07,1.97,3.96-.73,6.4,2.13,4.35,1.7,5.7-2.33,7.29Z"/>
  <path d="M12.64,24.56c0,2.69-.06,5.2,.02,7.72,.07,2.37,1.63,4.2,4.12,4.14,2.39-.05,4.75-1.21,7.13-1.21,2.37,0,4.75,1.18,7.13,1.2,2.66,.02,4.06-1.94,4.04-4.65,0-1.19,.03-2.38,.04-3.57,0-1.18,0-2.37,0-3.56,2.88-.19,4.31,1.03,4.52,3.85,.03,.34,.16,.7,.35,.99,2.06,3.07,1.96,3.95-.74,6.39,2.13,4.35,1.7,5.7-2.33,7.29,.58,5.29-1.9,7.29-6.87,6.42-.94,3.22-2.96,5.36-6.53,5.17-3.13-.16-4.99-2.1-5.67-5.07-5.93,.17-7.52-1.34-6.86-6.35-4.39-2.3-4.81-3.56-2.47-7.25q-2.62-3-.6-6.78c.13-.24,.16-.55,.19-.84,.29-3,1.43-3.97,4.54-3.92Z" fill="#fff"/>
  <path d="M37.51,23.64c-9.15-2.03-18.16-2-27.8,.11,.17-2.45,.18-4.48,.52-6.46,.1-.56,1.09-1.12,1.79-1.39,7.27-2.82,14.62-3.13,22.06-.6,3.57,1.21,4.36,2.28,3.98,5.98-.07,.71-.32,1.41-.55,2.35Z" fill="#fff"/>
  <path d="M14.22,13.88l1.51-3.55-.65-.58c-1.52,2.68-3.38,4.85-6.62,5.07l-1.53-2.63c3.9-3.37,7.78-6.9,11.9-10.14,.89-.7,2.86-.84,3.91-.35,5.51,2.58,9.17,7.13,12.28,12.35-6.85-2.02-13.65-2.36-20.8-.17Z" fill="#fff"/>
  <path d="M23.84,23.04c2.82,.31,5.64,.55,8.43,.97,.53,.08,1.13,.76,1.38,1.31,.3,.65,.31,1.45,.34,2.19,.11,3.16-.84,3.8-3.59,2.36-1.89-1-3.74-1.34-5.76-.43-.41,.19-1.05,.24-1.43,.05-2.19-1.06-4.14-.54-6.16,.55-2.36,1.28-3.15,.75-3.22-1.98-.02-.74,.08-1.49,.11-2.23,.05-1.23,.57-1.83,1.9-1.93,2.67-.19,5.33-.56,8-.86Z" fill="#fff"/>
  <path d="M23.89,33.45c-4.64,3.17-9.32,2.55-9.95-1.26,3.31-.1,6.2-3.81,9.84-1.09,3.6-2.56,6.58,.83,10.58,1.08-.86,1.11-1.35,2.36-2.2,2.72-2.93,1.22-5.69,.46-8.27-1.45Z" fill="#fff"/>
  <path d="M7.2,15.78c0,1.64-1.35,2.99-3,2.99-1.67,0-2.99-1.33-2.98-3,.01-1.67,1.35-3.01,2.98-3.01,1.61,0,2.99,1.39,2.99,3.01Z" fill="#fff"/>
  <circle cx="18.81" cy="26.4" r="1.62"/>
  <circle cx="28.43" cy="26.4" r="1.62"/>
</svg>