<?xml version="1.0" encoding="iso-8859-1"?>
<!-- Generator: Adobe Illustrator 21.0.0, SVG Export Plug-In . SVG Version: 6.00 Build 0)  -->
<svg version="1.1" id="Layer_1" xmlns="http://www.w3.org/2000/svg" xmlns:xlink="http://www.w3.org/1999/xlink" x="0px" y="0px"
	 width="595.276px" height="595.276px" viewBox="0 0 595.276 595.276" enable-background="new 0 0 595.276 595.276"
	 xml:space="preserve">
<g>
	<defs>
		<rect id="SVGID_33_" width="595.276" height="595.276"/>
	</defs>
	<clipPath id="SVGID_2_">
		<use xlink:href="#SVGID_33_"  overflow="visible"/>
	</clipPath>
	<g clip-path="url(#SVGID_2_)">
		<path fill="#5B96E4" d="M96.266,229.659c37.725-4.093,75.669-6.17,113.615-6.219c28.099-0.036,58.258,1.738,80.537,18.861
			c13.567,10.427,22.695,25.486,34.491,37.881c14.606,15.346,33.489,26.577,53.945,32.085c-6.303-18.242-9.086-37.693-8.148-56.971
			c0.645-13.274,3.033-26.537,1.886-39.777c-1.144-13.21-5.76-25.85-10.66-38.171c-0.824-2.073-1.741-4.252-3.542-5.567
			c-1.96-1.432-4.554-1.547-6.981-1.607c-44.689-1.111-89.378-2.221-134.068-3.332c-29.852-0.742-59.85-1.477-89.453,2.448
			c-10.641,1.411-36.075-1.603-40.981,8.982C84.939,182.52,95.162,229.779,96.266,229.659z"/>
		<path fill="#E8C17C" d="M186.52,230.221c30.402-8.28,62.48-6.964,93.959-5.585c-1.125-21.621-2.249-43.242-3.374-64.864
			c-17.272,3.918-35.337,4.303-52.76,1.127c-4.639-0.846-9.239-1.941-13.925-2.466c-18.947-2.121-24.859,1.507-24.977,19.619
			C185.414,182.73,188.08,229.796,186.52,230.221z"/>
		<path fill="#E595D6" d="M307.055,83.161c-58.308-3.797-115.962,23.965-173.867,16.139c1.527,21.409,4.487,42.716,8.855,63.731
			c39.204-16.052,82.502-13.688,123.8-9.985c13.284,1.191,42.174,10.278,47.364-3.666
			C314.861,144.936,306.946,83.154,307.055,83.161z"/>
		<g>
			<path fill="#F9DEE8" d="M152.271,64.112c-5.345-5.981-9.612-13.336-10.106-21.341c-0.07-1.126-0.04-2.338,0.605-3.264
				c0.836-1.2,2.429-1.557,3.876-1.763c13.166-1.879,26.613,0.971,39.094,5.561c14.176,5.213,22.202,12.548,29.222,25.583
				c7.312,13.577,13.274,23.086,30.742,23.351c8.34,0.126,16.539-2.083,24.439-4.758c5.513-1.866,11.052-4.027,15.559-7.71
				c11.025-9.007,13.406-24.637,15.012-38.783c0.394-3.468,0.456-7.691-2.464-9.602c-1.658-1.085-3.79-1.029-5.765-0.873
				c-16.443,1.294-32.439,7.093-46.109,16.282c-12.224,8.217-18.059,21.292-28.637,30.008
				C201.357,90.303,165.253,78.636,152.271,64.112z"/>
			<path fill="#F9DEE8" d="M169.668,164.692c8.171-3.29,16.809-5.416,25.573-6.292c-3.383-3.466-3.651-8.822-3.716-13.665
				c-0.218-16.081,1.002-33.139-1.103-48.974c-13.183-1.375-21.127,4.89-22.903,17.47
				C166.711,118.955,173.453,163.167,169.668,164.692z"/>
			<path fill="#F9DEE8" d="M212.46,157.1c8.658-0.061,17.305-1.459,25.541-4.129c-4.088-7.37-4.192-16.215-4.192-24.643
				c-0.001-12.639-0.003-25.277-0.004-37.916c-18.268-1.657-26.174,1.085-25.083,19.084
				C208.963,113.491,212.016,157.103,212.46,157.1z"/>
			<path fill="#F9DEE8" d="M256.108,155.534c7.443-0.793,14.845-1.972,22.167-3.53c1.764-0.375,3.755-0.95,4.526-2.58
				c0.429-0.908,0.374-1.959,0.311-2.961c-1.209-19.078-2.419-38.155-3.628-57.233c-0.077-1.21-19.515-0.293-21.387,1.045
				c-4.958,3.546-4.084,6.531-5.113,12.084C249.972,118.621,253.863,139.317,256.108,155.534z"/>
		</g>
		<path fill="#ED9191" d="M137.665,366.348c1.889,11.587,3.27,23.499,8.387,34.066c13.521,27.92,47.841,37.819,78.461,42.797
			c83.163,13.519,168.626,12.769,251.539-2.205c7.87-1.421,16.088-3.141,22.212-8.283c7.052-5.921,10.047-15.286,12.255-24.225
			c5.039-20.407,7.727-41.394,7.992-62.413c-38.19,4.256-76.518,7.278-114.903,9.061c-23.594,1.096-47.721,1.658-70.283-5.329
			c-5.002-1.549-9.991-3.519-14.001-6.887c-6.781-5.695-9.871-14.541-12.684-22.938c-5.955-17.777-13.027-36.902-28.891-46.892
			c-6.828-4.3-14.751-6.501-22.632-8.233c-39.089-8.589-82.146-7.335-120.189,5.658c-20.325,6.942-19.38,13.178-13.024,32.57
			C128.679,323.76,134.164,344.872,137.665,366.348z"/>
		<path fill="#E8E8E8" d="M214.984,491.307c0.293,2.221,0.692,4.592,2.241,6.211c2.057,2.15,5.397,2.26,8.373,2.225
			c8.395-0.098,16.791-0.196,25.186-0.294c-4.418-13.39-6.892-27.42-7.318-41.514c-0.344-11.357-21.017-11.064-27.28-4.286
			C208.852,461.585,213.746,482.012,214.984,491.307z"/>
		<path fill="#E8E8E8" d="M397.535,498.599c0.483,1.368,1.13,2.884,2.489,3.391c0.797,0.297,1.681,0.175,2.522,0.043
			c7.685-1.211,15.284-2.962,22.724-5.237c3.042-0.93,0.255-36.959-0.448-40.792c-1.577-8.584,0.199-9.913-7.433-13.151
			c-3.632-1.541-15.284-1.045-19.223,0.748C379.508,452.092,392.57,484.538,397.535,498.599z"/>
		<g>
			<path fill="#B7A26E" d="M65.569,244.104c-8.889,3.831-16.606,10.332-21.891,18.441c66.687,16.248,136.911-13.763,204.881-4.212
				c22.215,3.122,46.626,13.144,53.736,34.421c4.945,14.795,2.102,34.973,15.889,42.272c2.861,1.515,6.09,2.164,9.271,2.765
				c61.367,11.585,124.891,11.639,186.278,0.159c11.242-2.102,23.354-5.156,30.375-14.184c7.021-9.028,4.402-25.621-6.822-27.814
				c-3.64-0.711-7.38,0.191-10.982,1.073c-46.656,11.427-93.91,20.411-141.504,26.905c-6.822,0.931-13.814,1.805-20.541,0.336
				c-12.581-2.748-22.085-13.235-28.388-24.464s-10.297-23.668-16.981-34.675c-11.674-19.224-31.632-33.219-53.684-37.643
				c-13.501-2.709-27.425-1.961-41.174-1.201c-34.738,1.919-69.475,3.838-104.213,5.757c-11.597,0.641-23.747,1.181-34.265-3.748
				c-7.214-3.38-23.322-18.023-31.555-9.802C47.079,225.398,61.582,245.822,65.569,244.104z"/>
			<path fill="#B7A26E" d="M486.49,470.889c16.343-4.076,36.278,0.995,44.024,15.953c2.195,4.238,3.264,9.409,1.34,13.777
				c-2.468,5.603-8.86,8.154-14.651,10.141c-45.767,15.707-92.041,29.939-138.724,42.668c-13.725,3.742-27.546,7.366-41.684,8.942
				c-21.219,2.365-42.649,0.07-63.875-2.225c-13.593-1.469-27.186-2.939-40.78-4.408c-24.19-2.615-48.38-5.23-72.57-7.845
				c-10.036-1.085-20.153-2.187-29.76-5.284c-10.438-3.365-20.714-9.757-24.88-19.902c-4.166-10.145,0.52-24.13,11.173-26.74
				c4.482-1.098,9.182-0.131,13.688,0.863c21.157,4.669,42.466,9.972,64.127,9.523c14.26-0.296,28.332-3.084,42.464-5.011
				c52.393-7.147,105.617-2.467,158.204,3.08c16.927,1.786,32.853,2.271,47.695-7.016
				C457.249,488.038,468.641,475.341,486.49,470.889z"/>
		</g>
		<g>
			
				<path fill="none" stroke="#09090A" stroke-width="7.0359" stroke-linecap="round" stroke-linejoin="round" stroke-miterlimit="10" d="
				M113.39,502.264c-1.507,7.761,46.787,3.494,47.75,3.494c20.39,0,40.129-2.33,60.562-2.33c72.321,0,149.078,5.693,221.282-2.329
				c21.308-2.368,27.863-27.649,48.914-30.281c17.941-2.242,45.152,10.034,41.927,32.61c-3.52,24.643-80.97,32.277-97.829,34.94
				c-80.956,12.782-170.062,17.175-251.563,6.987c-18.824-2.353-58.555-0.322-72.208-13.975
				C99.122,518.276,115.106,493.429,113.39,502.264z"/>
			
				<path fill="none" stroke="#09090A" stroke-width="7.0359" stroke-linecap="round" stroke-linejoin="round" stroke-miterlimit="10" d="
				M214.714,450.906c-4.898,9.796-5.416,41.69,0,52.522"/>
			
				<path fill="none" stroke="#09090A" stroke-width="7.0359" stroke-linecap="round" stroke-linejoin="round" stroke-miterlimit="10" d="
				M238.007,450.906c-4.925,17.914,1.197,34.902,4.659,52.522"/>
			
				<path fill="none" stroke="#09090A" stroke-width="7.0359" stroke-linecap="round" stroke-linejoin="round" stroke-miterlimit="10" d="
				M388.634,447.526c4.173,18.777,2.225,40.605,12.423,55.903"/>
			
				<path fill="none" stroke="#09090A" stroke-width="7.0359" stroke-linecap="round" stroke-linejoin="round" stroke-miterlimit="10" d="
				M420.582,442.08c-6.322,12.645,0.991,46.38,0.991,61.002"/>
			
				<path fill="none" stroke="#09090A" stroke-width="7.0359" stroke-linecap="round" stroke-linejoin="round" stroke-miterlimit="10" d="
				M109.896,270.501c9.788-14.681,7.163,52.294,9.318,65.219c7.85,47.103,14.284,100.211,69.878,109.476
				c81.596,13.6,201.039,8.062,281.843-13.975c26.62-7.26,37.269-34.637,37.269-58.127c0-7.707,0.69-33.559,4.658-25.622"/>
			
				<path fill="none" stroke="#09090A" stroke-width="7.0359" stroke-linecap="round" stroke-linejoin="round" stroke-miterlimit="10" d="
				M60.982,235.56c7.542,7.018-19.734,21.001-11.647,25.623c46.64,26.651,170.739-27.318,239.916,2.329
				c23.837,10.216,3.874,65.735,44.257,79.196c21.541,7.181,212.135,8.463,216.623-13.975
				c11.018-55.089-43.238-17.764-55.903-13.976c-46.5,13.909-69.145,11.41-93.171,11.077c-86.532-1.2-54.708-48.614-97.831-80.955
				c-21.324-15.994-51.455-11.647-79.206-11.647c-37.891,0-77.759-2.33-116.453-2.33c-14.559,0-27.369-4.658-41.927-4.658
				c-5.436,0-19.566-4.347-16.305,0C52.318,230.221,57.342,232.175,60.982,235.56z"/>
			
				<path fill="none" stroke="#09090A" stroke-width="7.0359" stroke-linecap="round" stroke-linejoin="round" stroke-miterlimit="10" d="
				M89.868,229.118c-7.112-14.223-1.107-61.106-1.107-61.106s227.006-10.535,256.393-4.659
				c38.834,7.767,17.854,131.168,32.61,160.681"/>
			
				<path fill="none" stroke="#09090A" stroke-width="7.0359" stroke-linecap="round" stroke-linejoin="round" stroke-miterlimit="10" d="
				M133.19,100.253c4.504,24.771,2.328,39.934,2.328,65.325"/>
			
				<path fill="none" stroke="#09090A" stroke-width="7.0359" stroke-linecap="round" stroke-linejoin="round" stroke-miterlimit="10" d="
				M133.19,100.253c22.302,0.707,43.748-5.036,65.219-6.988c157.595-14.327,95.839-23.372,112.97,65.167"/>
			
				<path fill="none" stroke="#09090A" stroke-width="7.0359" stroke-linecap="round" stroke-linejoin="round" stroke-miterlimit="10" d="
				M233.349,90.242c-2.528,21.874-1.327,22.354,0,68.189"/>
			
				<path fill="none" stroke="#09090A" stroke-width="7.0359" stroke-linecap="round" stroke-linejoin="round" stroke-miterlimit="10" d="
				M210.866,97.822c-2.528,20.354-1.327,20.801,0,63.452"/>
			
				<path fill="none" stroke="#09090A" stroke-width="7.0359" stroke-linecap="round" stroke-linejoin="round" stroke-miterlimit="10" d="
				M185.173,95.277c-2.528,21.171-1.327,21.635,0,65.996"/>
			
				<path fill="none" stroke="#09090A" stroke-width="7.0359" stroke-linecap="round" stroke-linejoin="round" stroke-miterlimit="10" d="
				M165.651,97.822c-2.528,20.354-1.327,20.801,0,63.452"/>
			
				<path fill="none" stroke="#09090A" stroke-width="7.0359" stroke-linecap="round" stroke-linejoin="round" stroke-miterlimit="10" d="
				M253.335,90.242c-2.528,22.786-1.327,23.286,0,71.031"/>
			
				<path fill="none" stroke="#09090A" stroke-width="7.0359" stroke-linecap="round" stroke-linejoin="round" stroke-miterlimit="10" d="
				M277.303,87.401c-2.528,22.786-1.327,23.286,0,71.031"/>
			
				<path fill="none" stroke="#09090A" stroke-width="7.0359" stroke-linecap="round" stroke-linejoin="round" stroke-miterlimit="10" d="
				M181.623,164.286c-2.323,8.306-2.137,53.155,2.81,64.287"/>
			
				<path fill="none" stroke="#09090A" stroke-width="7.0359" stroke-linecap="round" stroke-linejoin="round" stroke-miterlimit="10" d="
				M282.44,162.189c-4.061-8.122-2.506,57.879-2.506,71.043"/>
			
				<path fill="none" stroke="#09090A" stroke-width="7.0359" stroke-linecap="round" stroke-linejoin="round" stroke-miterlimit="10" d="
				M215.224,72.174c-53.674-65.291-94.32-25.22-59.397,5.824C171.023,91.505,233.778,94.745,215.224,72.174z"/>
			
				<path fill="none" stroke="#09090A" stroke-width="7.0359" stroke-linecap="round" stroke-linejoin="round" stroke-miterlimit="10" d="
				M223.656,72.174c53.674-65.291,94.32-25.22,59.397,5.824C267.857,91.505,205.102,94.745,223.656,72.174z"/>
		</g>
	</g>
</g>
</svg>
