<?xml version="1.0" encoding="UTF-8"?>
<svg id="Layer_1" data-name="Layer 1" xmlns="http://www.w3.org/2000/svg" viewBox="0 0 1918.73 1079.78">
  <path d="M1835.87,214.01c16.93-8.92,35.42,8.98,26.98,26.16-21.75,44.23-55.43,104.15-83.7,117.12-42.68,19.58-86.55,39.97-113.47,68.63-48.57,51.7-31.33,116.64-21.79,176.46,9.35,58.6,9.18,119.65-26.66,174.02-26.7,40.51-71.74,75.1-103.18,114.23-47,58.5-60.55,123.95-49.77,189.16H887.2c57.35-74.51,143.74-140.16,251.2-187.73,92-40.73,205.32-74.07,245.6-140.32,36.99-60.85-1.31-128.81,2.76-193.94,4.08-65.38,51.97-127.56,119.28-177.28,34.14-25.23,73.05-47.53,114.75-67.73,.5-.25,1-.49,1.5-.72,40.07-19.36,82.67-36.77,126.03-53,30.19-11.3,54.56-27.67,87.56-45.05Z" fill="#061856"/>
  <path d="M1551,79.62c28.09,0,34.73,39.22,8.21,48.48-.34,.12-.68,.24-1.02,.36-109.85,38.56-232.68,59.15-351.71,83.02-145.65,29.2-296.68,67.71-394.49,140.18-2.03,1.5-4.04,3.02-6.02,4.55-7.75,5.99-15.13,12.2-22.13,18.65-42.68,39.34-68.11,85.37-111.52,124.39-43.76,39.34-105.48,70.6-175.76,89.05-91.61,24.04-194.65,26.22-286.39,50.05-12.17,3.16-24.06,6.69-35.65,10.56-57.12,19.06-116.08-23.68-116.08-83.9h0c0-47.4,37.4-86.32,84.75-88.29,14.07-.58,28.03-1.29,41.76-2.27,68.58-4.89,136.5-18.4,196.33-40.04,.05-.02,.11-.03,.16-.06,53.78-19.46,101.02-45.49,136.29-77.72,54.86-50.13,84.04-115.86,167.54-146.38,46.28-16.92,101.64-19.74,154.83-23.19,169.46-11.02,341.58-33.93,494.86-79.16,63.95-18.87,130.32-28.29,197-28.29h19.03Z" fill="#061856"/>
  <path d="M978.74,932.54c-.03,2.57-2.92,4.72-5.63,6.64-35.02,24.77-66.06,51.77-92.67,80.41-17.6,18.93-34.38,39.18-48.97,60.19h-79.87c15.83-16.99,32.48-33.71,49.38-50.26,40.16-39.38,84.76-79.8,151.11-100.72,4.92-1.55,10.22-3.02,15.69-2.72,5.48,.3,11.02,2.99,10.96,6.46Z" fill="#061856"/>
  <path d="M413.71,346.17c-1.01,2.34-3.74,4.19-6.44,5.91-38.27,24.2-89.58,38.83-142.21,46.87-36.51,5.57-115.66,15.75-162.83,18.53-14.3,.84-26.37-10.52-26.37-24.85v-.43c0-13.32,10.58-24.33,23.89-24.63h.25c16.53-.34,32.85,2.06,49.24,3.48,85.64,7.45,170.84-11.71,252.02-30.48,2.77-.63,5.84-1.27,8.57-.57,3.55,.91,4.89,3.83,3.88,6.16Z" fill="#061856"/>
  <path d="M474.7,1049.79c-12.2,10.4-25.93,20.43-40.73,29.99H-1.69v-66.11c17.43-21.01,39.63-40.67,64.41-58.41,22.41-16.05,47.43-31.04,77.24-41.22,45.21-15.43,98.09-18.76,149.43-20.17,36.88-1.02,74.49-1.15,109.85,5.55,25.9,4.9,49.74,13.32,72.99,22.04,19.45,7.29,39.64,15.5,49.55,28.35,22.19,28.74-19.16,76.19-47.08,99.98Z" fill="#061856"/>
  <path d="M1882.52,838.76c-.12,2.48-.26,4.97-.42,7.47l-173.13,233.55h-148.04c-.02-3.14,0-6.3,.05-9.47,.45-27.56,3.31-56.58,12.88-86.59,14.53-45.51,43.35-89.98,72.79-132.06,3.01-4.31,6.04-8.61,9.11-12.9,18.46-25.84,38.09-51.11,60.77-72.04,19.36-17.89,40.32-32.03,61.17-45.51,17.44-11.29,36.06-22.62,52.28-22.93,36.3-.71,49.8,60.77,52.28,97.37,.93,13.72,.98,28.17,.26,43.11Z" fill="#061856"/>
</svg>